<svg width="183" height="38" viewBox="0 0 183 38" fill="none" xmlns="http://www.w3.org/2000/svg">
<path d="M1.47363 19.25C1.47363 17.5333 1.85697 16 2.62363 14.65C3.40697 13.2833 4.4653 12.225 5.79863 11.475C7.14863 10.7083 8.65697 10.325 10.3236 10.325C12.2736 10.325 13.982 10.825 15.4486 11.825C16.9153 12.825 17.9403 14.2083 18.5236 15.975H14.4986C14.0986 15.1417 13.532 14.5167 12.7986 14.1C12.082 13.6833 11.2486 13.475 10.2986 13.475C9.28197 13.475 8.37363 13.7167 7.57363 14.2C6.7903 14.6667 6.17363 15.3333 5.72363 16.2C5.2903 17.0667 5.07363 18.0833 5.07363 19.25C5.07363 20.4 5.2903 21.4167 5.72363 22.3C6.17363 23.1667 6.7903 23.8417 7.57363 24.325C8.37363 24.7917 9.28197 25.025 10.2986 25.025C11.2486 25.025 12.082 24.8167 12.7986 24.4C13.532 23.9667 14.0986 23.3333 14.4986 22.5H18.5236C17.9403 24.2833 16.9153 25.675 15.4486 26.675C13.9986 27.6583 12.2903 28.15 10.3236 28.15C8.65697 28.15 7.14863 27.775 5.79863 27.025C4.4653 26.2583 3.40697 25.2 2.62363 23.85C1.85697 22.5 1.47363 20.9667 1.47363 19.25ZM28.1131 28.175C26.4798 28.175 24.9798 27.7917 23.6131 27.025C22.2464 26.2583 21.1631 25.2 20.3631 23.85C19.5631 22.4833 19.1631 20.9417 19.1631 19.225C19.1631 17.525 19.5631 16 20.3631 14.65C21.1631 13.2833 22.2464 12.2167 23.6131 11.45C24.9798 10.6833 26.4798 10.3 28.1131 10.3C29.7631 10.3 31.2631 10.6833 32.6131 11.45C33.9798 12.2167 35.0548 13.2833 35.8381 14.65C36.6381 16 37.0381 17.525 37.0381 19.225C37.0381 20.9417 36.6381 22.4833 35.8381 23.85C35.0548 25.2 33.9798 26.2583 32.6131 27.025C31.2464 27.7917 29.7464 28.175 28.1131 28.175ZM28.1131 25.05C29.1631 25.05 30.0881 24.8167 30.8881 24.35C31.6881 23.8667 32.3131 23.1833 32.7631 22.3C33.2131 21.4167 33.4381 20.3917 33.4381 19.225C33.4381 18.0583 33.2131 17.0417 32.7631 16.175C32.3131 15.2917 31.6881 14.6167 30.8881 14.15C30.0881 13.6833 29.1631 13.45 28.1131 13.45C27.0631 13.45 26.1298 13.6833 25.3131 14.15C24.5131 14.6167 23.8881 15.2917 23.4381 16.175C22.9881 17.0417 22.7631 18.0583 22.7631 19.225C22.7631 20.3917 22.9881 21.4167 23.4381 22.3C23.8881 23.1833 24.5131 23.8667 25.3131 24.35C26.1298 24.8167 27.0631 25.05 28.1131 25.05ZM53.067 28H49.567L41.642 16.025V28H38.142V10.525H41.642L49.567 22.525V10.525H53.067V28ZM61.0508 28.175C59.8341 28.175 58.7341 27.9667 57.7508 27.55C56.7841 27.1333 56.0174 26.5333 55.4508 25.75C54.8841 24.9667 54.5924 24.0417 54.5758 22.975H58.3258C58.3758 23.6917 58.6258 24.2583 59.0758 24.675C59.5424 25.0917 60.1758 25.3 60.9758 25.3C61.7924 25.3 62.4341 25.1083 62.9008 24.725C63.3674 24.325 63.6008 23.8083 63.6008 23.175C63.6008 22.6583 63.4424 22.2333 63.1258 21.9C62.8091 21.5667 62.4091 21.3083 61.9258 21.125C61.4591 20.925 60.8091 20.7083 59.9758 20.475C58.8424 20.1417 57.9174 19.8167 57.2008 19.5C56.5008 19.1667 55.8924 18.675 55.3758 18.025C54.8758 17.3583 54.6258 16.475 54.6258 15.375C54.6258 14.3417 54.8841 13.4417 55.4008 12.675C55.9174 11.9083 56.6424 11.325 57.5758 10.925C58.5091 10.5083 59.5758 10.3 60.7758 10.3C62.5758 10.3 64.0341 10.7417 65.1508 11.625C66.2841 12.4917 66.9091 13.7083 67.0258 15.275H63.1758C63.1424 14.675 62.8841 14.1833 62.4008 13.8C61.9341 13.4 61.3091 13.2 60.5258 13.2C59.8424 13.2 59.2924 13.375 58.8758 13.725C58.4758 14.075 58.2758 14.5833 58.2758 15.25C58.2758 15.7167 58.4258 16.1083 58.7258 16.425C59.0424 16.725 59.4258 16.975 59.8758 17.175C60.3424 17.3583 60.9924 17.575 61.8258 17.825C62.9591 18.1583 63.8841 18.4917 64.6008 18.825C65.3174 19.1583 65.9341 19.6583 66.4508 20.325C66.9674 20.9917 67.2258 21.8667 67.2258 22.95C67.2258 23.8833 66.9841 24.75 66.5008 25.55C66.0174 26.35 65.3091 26.9917 64.3758 27.475C63.4424 27.9417 62.3341 28.175 61.0508 28.175ZM80.6352 10.55V13.375H75.9852V28H72.4852V13.375H67.8352V10.55H80.6352ZM90.6889 28L86.8389 21.2H85.1889V28H81.6889V10.55H88.2389C89.5889 10.55 90.7389 10.7917 91.6889 11.275C92.6389 11.7417 93.3472 12.3833 93.8139 13.2C94.2972 14 94.5389 14.9 94.5389 15.9C94.5389 17.05 94.2055 18.0917 93.5389 19.025C92.8722 19.9417 91.8805 20.575 90.5639 20.925L94.7389 28H90.6889ZM85.1889 18.575H88.1139C89.0639 18.575 89.7722 18.35 90.2389 17.9C90.7055 17.4333 90.9389 16.7917 90.9389 15.975C90.9389 15.175 90.7055 14.5583 90.2389 14.125C89.7722 13.675 89.0639 13.45 88.1139 13.45H85.1889V18.575ZM99.6545 10.55V21.35C99.6545 22.5333 99.9628 23.4417 100.579 24.075C101.196 24.6917 102.063 25 103.179 25C104.313 25 105.188 24.6917 105.804 24.075C106.421 23.4417 106.729 22.5333 106.729 21.35V10.55H110.254V21.325C110.254 22.8083 109.929 24.0667 109.279 25.1C108.646 26.1167 107.788 26.8833 106.704 27.4C105.638 27.9167 104.446 28.175 103.129 28.175C101.829 28.175 100.646 27.9167 99.5795 27.4C98.5295 26.8833 97.6962 26.1167 97.0795 25.1C96.4628 24.0667 96.1545 22.8083 96.1545 21.325V10.55H99.6545ZM111.286 19.25C111.286 17.5333 111.669 16 112.436 14.65C113.219 13.2833 114.278 12.225 115.611 11.475C116.961 10.7083 118.469 10.325 120.136 10.325C122.086 10.325 123.794 10.825 125.261 11.825C126.728 12.825 127.753 14.2083 128.336 15.975H124.311C123.911 15.1417 123.344 14.5167 122.611 14.1C121.894 13.6833 121.061 13.475 120.111 13.475C119.094 13.475 118.186 13.7167 117.386 14.2C116.603 14.6667 115.986 15.3333 115.536 16.2C115.103 17.0667 114.886 18.0833 114.886 19.25C114.886 20.4 115.103 21.4167 115.536 22.3C115.986 23.1667 116.603 23.8417 117.386 24.325C118.186 24.7917 119.094 25.025 120.111 25.025C121.061 25.025 121.894 24.8167 122.611 24.4C123.344 23.9667 123.911 23.3333 124.311 22.5H128.336C127.753 24.2833 126.728 25.675 125.261 26.675C123.811 27.6583 122.103 28.15 120.136 28.15C118.469 28.15 116.961 27.775 115.611 27.025C114.278 26.2583 113.219 25.2 112.436 23.85C111.669 22.5 111.286 20.9667 111.286 19.25ZM141.701 10.55V13.375H137.051V28H133.551V13.375H128.901V10.55H141.701ZM146.254 10.55V28H142.754V10.55H146.254ZM156.312 28.175C154.679 28.175 153.179 27.7917 151.812 27.025C150.446 26.2583 149.362 25.2 148.562 23.85C147.762 22.4833 147.362 20.9417 147.362 19.225C147.362 17.525 147.762 16 148.562 14.65C149.362 13.2833 150.446 12.2167 151.812 11.45C153.179 10.6833 154.679 10.3 156.312 10.3C157.962 10.3 159.462 10.6833 160.812 11.45C162.179 12.2167 163.254 13.2833 164.037 14.65C164.837 16 165.237 17.525 165.237 19.225C165.237 20.9417 164.837 22.4833 164.037 23.85C163.254 25.2 162.179 26.2583 160.812 27.025C159.446 27.7917 157.946 28.175 156.312 28.175ZM156.312 25.05C157.362 25.05 158.287 24.8167 159.087 24.35C159.887 23.8667 160.512 23.1833 160.962 22.3C161.412 21.4167 161.637 20.3917 161.637 19.225C161.637 18.0583 161.412 17.0417 160.962 16.175C160.512 15.2917 159.887 14.6167 159.087 14.15C158.287 13.6833 157.362 13.45 156.312 13.45C155.262 13.45 154.329 13.6833 153.512 14.15C152.712 14.6167 152.087 15.2917 151.637 16.175C151.187 17.0417 150.962 18.0583 150.962 19.225C150.962 20.3917 151.187 21.4167 151.637 22.3C152.087 23.1833 152.712 23.8667 153.512 24.35C154.329 24.8167 155.262 25.05 156.312 25.05ZM181.266 28H177.766L169.841 16.025V28H166.341V10.525H169.841L177.766 22.525V10.525H181.266V28Z" fill="#40A2D5"/>
</svg>
